#Comment line ignore any data following # character 
#Hierarchical Translation and Rotation (.htr) file 
[Header]	
#Header keywords are followed by a single value 
FileType HTR		#Single word string
DataType HTRS		#Translation followed by rotation and scale data
FileVersion 1		#integer
NumSegments 84		#integer
NumFrames 2		#integer
DataFrameRate 30		#integer, data frame rate in this file
EulerRotationOrder ZYX
CalibrationUnits mm
RotationUnits Degrees
GlobalAxisofGravity Y
BoneLengthAxis Y
ScaleFactor 1.00
[SegmentNames&Hierarchy]
#CHILD	PARENT
MASTER GLOBAL
root MASTER
chest root
L_mid_tent01 root
R_mid_tent01 root
spine01 root
Bip01_Neck chest
L_humerus chest
R_humerus chest
weapon_bone chest
Bip01_Head Bip01_Neck
eye_left_bone Bip01_Head
eye_right_bone Bip01_Head
L_forearm L_humerus
L_front_hand L_forearm
L_weapon_bone L_forearm
L_front_hand01_01 L_front_hand
L_front_hand02_01 L_front_hand
L_front_hand03_01 L_front_hand
L_front_hand01_02 L_front_hand01_01
L_front_hand02_02 L_front_hand02_01
L_front_hand03_02 L_front_hand03_01
R_forearm R_humerus
R_front_hand R_forearm
R_weapon_bone R_forearm
R_front_hand01_01 R_front_hand
R_front_hand02_01 R_front_hand
R_front_hand03_01 R_front_hand
R_front_hand01_02 R_front_hand01_01
R_front_hand02_02 R_front_hand02_01
R_front_hand03_02 R_front_hand03_01
null_rope01_connect L_mid_tent01
Rope1_Seg01 null_rope01_connect
Rope1_Seg02 Rope1_Seg01
Rope1_Seg03 Rope1_Seg02
Rope1_Seg04 Rope1_Seg03
Rope1_Seg05 Rope1_Seg04
Rope1_Seg06 Rope1_Seg05
Rope1_Seg07 Rope1_Seg06
Rope1_Seg09 Rope1_Seg07
L_mid_hand01 Rope1_Seg09
L_mid_hand02 Rope1_Seg09
L_mid_hand03 Rope1_Seg09
null_rope02_connect R_mid_tent01
Rope2_Seg01 null_rope02_connect
Rope2_Seg02 Rope2_Seg01
Rope2_Seg03 Rope2_Seg02
Rope2_Seg04 Rope2_Seg03
Rope2_Seg05 Rope2_Seg04
Rope2_Seg06 Rope2_Seg05
Rope2_Seg07 Rope2_Seg06
Rope2_Seg09 Rope2_Seg07
R_mid_hand01 Rope2_Seg09
R_mid_hand02 Rope2_Seg09
R_mid_hand03 Rope2_Seg09
spine02 spine01
spine03 spine02
pelvis spine03
null_rope03_connect pelvis
null_rope04_connect pelvis
Rope3_Seg01 null_rope03_connect
Rope3_Seg02 Rope3_Seg01
Rope3_Seg03 Rope3_Seg02
Rope3_Seg04 Rope3_Seg03
Rope3_Seg05 Rope3_Seg04
Rope3_Seg06 Rope3_Seg05
Rope3_Seg07 Rope3_Seg06
Rope3_Seg08 Rope3_Seg07
Rope3_Seg09 Rope3_Seg08
R_rear_hand01 Rope3_Seg09
R_rear_hand02 Rope3_Seg09
R_rear_hand03 Rope3_Seg09
Rope4_Seg01 null_rope04_connect
Rope4_Seg02 Rope4_Seg01
Rope4_Seg03 Rope4_Seg02
Rope4_Seg04 Rope4_Seg03
Rope4_Seg05 Rope4_Seg04
Rope4_Seg06 Rope4_Seg05
Rope4_Seg07 Rope4_Seg06
Rope4_Seg08 Rope4_Seg07
Rope4_Seg09 Rope4_Seg08
L_rear_hand01 Rope4_Seg09
L_rear_hand02 Rope4_Seg09
L_rear_hand03 Rope4_Seg09
[BasePosition]
#SegmentName Tx, Ty, Tz, Rx, Ry, Rz, BoneLength
MASTER 0.000000 0.000000 0.000000 -90.000000 0.000000 0.000000 10.000000 
root 0.000000 0.000000 0.000000 0.000000 0.000000 0.000000 10.000000 
chest 0.000000 0.000000 0.000000 0.000000 0.000000 0.000000 10.000000 
L_mid_tent01 0.000000 0.000000 0.000000 0.000000 0.000000 0.000000 10.000000 
R_mid_tent01 0.000000 0.000000 0.000000 0.000000 0.000000 0.000000 10.000000 
spine01 0.000000 0.000000 0.000000 0.000000 0.000000 0.000000 10.000000 
Bip01_Neck 0.000000 0.000000 0.000000 0.000000 0.000000 0.000000 10.000000 
L_humerus 0.000000 0.000000 0.000000 0.000000 0.000000 0.000000 10.000000 
R_humerus 0.000000 0.000000 0.000000 0.000000 0.000000 0.000000 10.000000 
weapon_bone 0.000000 0.000000 0.000000 0.000000 0.000000 0.000000 10.000000 
Bip01_Head 0.000000 0.000000 0.000000 0.000000 0.000000 0.000000 10.000000 
eye_left_bone 0.000000 0.000000 0.000000 0.000000 0.000000 0.000000 10.000000 
eye_right_bone 0.000000 0.000000 0.000000 0.000000 0.000000 0.000000 10.000000 
L_forearm 0.000000 0.000000 0.000000 0.000000 0.000000 0.000000 10.000000 
L_front_hand 0.000000 0.000000 0.000000 0.000000 0.000000 0.000000 10.000000 
L_weapon_bone 0.000000 0.000000 0.000000 0.000000 0.000000 0.000000 10.000000 
L_front_hand01_01 0.000000 0.000000 0.000000 0.000000 0.000000 0.000000 10.000000 
L_front_hand02_01 0.000000 0.000000 0.000000 0.000000 0.000000 0.000000 10.000000 
L_front_hand03_01 0.000000 0.000000 0.000000 0.000000 0.000000 0.000000 10.000000 
L_front_hand01_02 0.000000 0.000000 0.000000 0.000000 0.000000 0.000000 10.000000 
L_front_hand02_02 0.000000 0.000000 0.000000 0.000000 0.000000 0.000000 10.000000 
L_front_hand03_02 0.000000 0.000000 0.000000 0.000000 0.000000 0.000000 10.000000 
R_forearm 0.000000 0.000000 0.000000 0.000000 0.000000 0.000000 10.000000 
R_front_hand 0.000000 0.000000 0.000000 0.000000 0.000000 0.000000 10.000000 
R_weapon_bone 0.000000 0.000000 0.000000 0.000000 0.000000 0.000000 10.000000 
R_front_hand01_01 0.000000 0.000000 0.000000 0.000000 0.000000 0.000000 10.000000 
R_front_hand02_01 0.000000 0.000000 0.000000 0.000000 0.000000 0.000000 10.000000 
R_front_hand03_01 0.000000 0.000000 0.000000 0.000000 0.000000 0.000000 10.000000 
R_front_hand01_02 0.000000 0.000000 0.000000 0.000000 0.000000 0.000000 10.000000 
R_front_hand02_02 0.000000 0.000000 0.000000 0.000000 0.000000 0.000000 10.000000 
R_front_hand03_02 0.000000 0.000000 0.000000 0.000000 0.000000 0.000000 10.000000 
null_rope01_connect 0.000000 0.000000 0.000000 0.000000 0.000000 0.000000 10.000000 
Rope1_Seg01 0.000000 0.000000 0.000000 0.000000 0.000000 0.000000 10.000000 
Rope1_Seg02 0.000000 0.000000 0.000000 0.000000 0.000000 0.000000 10.000000 
Rope1_Seg03 0.000000 0.000000 0.000000 0.000000 0.000000 0.000000 10.000000 
Rope1_Seg04 0.000000 0.000000 0.000000 0.000000 0.000000 0.000000 10.000000 
Rope1_Seg05 0.000000 0.000000 0.000000 0.000000 0.000000 0.000000 10.000000 
Rope1_Seg06 0.000000 0.000000 0.000000 0.000000 0.000000 0.000000 10.000000 
Rope1_Seg07 0.000000 0.000000 0.000000 0.000000 0.000000 0.000000 10.000000 
Rope1_Seg09 0.000000 0.000000 0.000000 0.000000 0.000000 0.000000 10.000000 
L_mid_hand01 0.000000 0.000000 0.000000 0.000000 0.000000 0.000000 10.000000 
L_mid_hand02 0.000000 0.000000 0.000000 0.000000 0.000000 0.000000 10.000000 
L_mid_hand03 0.000000 0.000000 0.000000 0.000000 0.000000 0.000000 10.000000 
null_rope02_connect 0.000000 0.000000 0.000000 0.000000 0.000000 0.000000 10.000000 
Rope2_Seg01 0.000000 0.000000 0.000000 0.000000 0.000000 0.000000 10.000000 
Rope2_Seg02 0.000000 0.000000 0.000000 0.000000 0.000000 0.000000 10.000000 
Rope2_Seg03 0.000000 0.000000 0.000000 0.000000 0.000000 0.000000 10.000000 
Rope2_Seg04 0.000000 0.000000 0.000000 0.000000 0.000000 0.000000 10.000000 
Rope2_Seg05 0.000000 0.000000 0.000000 0.000000 0.000000 0.000000 10.000000 
Rope2_Seg06 0.000000 0.000000 0.000000 0.000000 0.000000 0.000000 10.000000 
Rope2_Seg07 0.000000 0.000000 0.000000 0.000000 0.000000 0.000000 10.000000 
Rope2_Seg09 0.000000 0.000000 0.000000 0.000000 0.000000 0.000000 10.000000 
R_mid_hand01 0.000000 0.000000 0.000000 0.000000 0.000000 0.000000 10.000000 
R_mid_hand02 0.000000 0.000000 0.000000 0.000000 0.000000 0.000000 10.000000 
R_mid_hand03 0.000000 0.000000 0.000000 0.000000 0.000000 0.000000 10.000000 
spine02 0.000000 0.000000 0.000000 0.000000 0.000000 0.000000 10.000000 
spine03 0.000000 0.000000 0.000000 0.000000 0.000000 0.000000 10.000000 
pelvis 0.000000 0.000000 0.000000 0.000000 0.000000 0.000000 10.000000 
null_rope03_connect 0.000000 0.000000 0.000000 0.000000 0.000000 0.000000 10.000000 
null_rope04_connect 0.000000 0.000000 0.000000 0.000000 0.000000 0.000000 10.000000 
Rope3_Seg01 0.000000 0.000000 0.000000 0.000000 0.000000 0.000000 10.000000 
Rope3_Seg02 0.000000 0.000000 0.000000 0.000000 0.000000 0.000000 10.000000 
Rope3_Seg03 0.000000 0.000000 0.000000 0.000000 0.000000 0.000000 10.000000 
Rope3_Seg04 0.000000 0.000000 0.000000 0.000000 0.000000 0.000000 10.000000 
Rope3_Seg05 0.000000 0.000000 0.000000 0.000000 0.000000 0.000000 10.000000 
Rope3_Seg06 0.000000 0.000000 0.000000 0.000000 0.000000 0.000000 10.000000 
Rope3_Seg07 0.000000 0.000000 0.000000 0.000000 0.000000 0.000000 10.000000 
Rope3_Seg08 0.000000 0.000000 0.000000 0.000000 0.000000 0.000000 10.000000 
Rope3_Seg09 0.000000 0.000000 0.000000 0.000000 0.000000 0.000000 10.000000 
R_rear_hand01 0.000000 0.000000 0.000000 0.000000 0.000000 0.000000 10.000000 
R_rear_hand02 0.000000 0.000000 0.000000 0.000000 0.000000 0.000000 10.000000 
R_rear_hand03 0.000000 0.000000 0.000000 0.000000 0.000000 0.000000 10.000000 
Rope4_Seg01 0.000000 0.000000 0.000000 0.000000 0.000000 0.000000 10.000000 
Rope4_Seg02 0.000000 0.000000 0.000000 0.000000 0.000000 0.000000 10.000000 
Rope4_Seg03 0.000000 0.000000 0.000000 0.000000 0.000000 0.000000 10.000000 
Rope4_Seg04 0.000000 0.000000 0.000000 0.000000 0.000000 0.000000 10.000000 
Rope4_Seg05 0.000000 0.000000 0.000000 0.000000 0.000000 0.000000 10.000000 
Rope4_Seg06 0.000000 0.000000 0.000000 0.000000 0.000000 0.000000 10.000000 
Rope4_Seg07 0.000000 0.000000 0.000000 0.000000 0.000000 0.000000 10.000000 
Rope4_Seg08 0.000000 0.000000 0.000000 0.000000 0.000000 0.000000 10.000000 
Rope4_Seg09 0.000000 0.000000 0.000000 0.000000 0.000000 0.000000 10.000000 
L_rear_hand01 0.000000 0.000000 0.000000 0.000000 0.000000 0.000000 10.000000 
L_rear_hand02 0.000000 0.000000 0.000000 0.000000 0.000000 0.000000 10.000000 
L_rear_hand03 0.000000 0.000000 0.000000 0.000000 0.000000 0.000000 10.000000 
#Beginning of Data. Separated by tabs
#Fr	Tx	Ty	Tz	Rx	Ry	Rz	SF
[MASTER]
17 1413.414551 3486.602295 -1609.361206 0.001660 0.001660 0.001660 4091.965332
18 1393.651001 3603.357910 -1589.091919 0.001660 0.001660 0.001660 4177.519043
[root]
17 -16.501465 -30.571592 1481.808594 -90.144882 -22.218599 -89.821404 1482.215698
18 -16.500702 -11.486206 1466.511353 -90.141869 -17.838579 -89.693695 1466.649170
[chest]
17 -84.512650 -34.090519 0.000000 -8.833159 2.251860 170.397079 91.129311
18 -84.512650 -34.090519 0.000000 -6.619982 1.470800 169.708664 91.129311
[L_mid_tent01]
17 27.298912 22.179134 -249.918823 -12.691062 28.752262 42.588364 252.381775
18 27.298904 22.179125 -249.918823 -16.493729 23.632950 32.045017 252.381775
[R_mid_tent01]
17 23.228794 24.509907 226.238495 -176.585297 -27.142328 44.043308 228.744751
18 23.228794 24.509907 226.238495 -172.353241 -24.525969 37.160889 228.744751
[spine01]
17 -0.361383 -0.195265 0.000000 -0.000001 -0.000007 22.052340 0.410763
18 -0.361383 -0.195265 0.000000 -0.000001 -0.000007 22.052340 0.410763
[Bip01_Neck]
17 165.484543 71.581718 0.000119 176.643677 -1.657967 43.431911 180.302734
18 165.484543 71.581718 0.000119 176.643677 -1.657967 43.431911 180.302734
[L_humerus]
17 -13.983130 -135.272980 -120.471481 144.202209 81.353775 -124.606506 181.680161
18 -13.983130 -135.272980 -120.471481 48.743065 86.472412 139.558380 181.680161
[R_humerus]
17 -13.983309 -135.273102 125.287651 172.763306 -78.000038 -77.677361 184.909012
18 -13.983309 -135.273102 125.287651 115.905090 -85.401894 -20.632677 184.909012
[weapon_bone]
17 235.964890 -300.705902 0.000000 0.000000 -89.951546 -128.212341 382.234833
18 235.964890 -300.705902 0.000000 0.000000 -89.951546 -128.212341 382.234833
[Bip01_Head]
17 213.442978 185.718185 11.741409 10.180565 4.116332 -43.873310 283.173096
18 213.443405 185.717285 11.753235 7.593706 3.460275 -43.888031 283.173340
[eye_left_bone]
17 -24.626970 125.451866 -64.772606 0.000000 -90.000000 -99.840431 143.318359
18 -24.626970 125.451866 -64.772606 0.000000 -90.000000 -99.840431 143.318359
[eye_right_bone]
17 -24.626970 125.451866 64.327362 0.000000 -89.965736 80.156380 143.117676
18 -24.626970 125.451866 64.327362 0.000000 -89.965736 80.156380 143.117676
[L_forearm]
17 322.776093 0.000000 -0.000119 0.000378 -0.002317 -108.548607 322.776093
18 322.776093 0.000000 -0.000119 0.000384 -0.002316 -108.844810 322.776093
[L_front_hand]
17 241.149185 -0.042021 -3.300071 -105.490540 -1.835781 -27.423635 241.171753
18 241.149185 -0.042021 -3.300071 -105.490540 -1.835781 -27.423635 241.171753
[L_weapon_bone]
17 156.183838 0.000000 0.000000 0.000014 0.000007 0.000001 156.183838
18 156.183838 0.000000 0.000000 0.000014 0.000007 0.000001 156.183838
[L_front_hand01_01]
17 86.095154 20.947098 -0.655860 -0.366594 -0.477154 75.385574 88.609184
18 86.095154 20.947098 -0.655860 -0.366594 -0.477154 75.385574 88.609184
[L_front_hand02_01]
17 86.935165 -11.437475 24.513514 154.399796 -59.883835 -61.369587 91.046425
18 86.935165 -11.437475 24.513514 154.399796 -59.883835 -61.369587 91.046425
[L_front_hand03_01]
17 86.637497 -14.123976 -20.424902 -153.913849 58.118122 -62.702866 90.126129
18 86.637497 -14.123976 -20.424902 -153.913849 58.118122 -62.702866 90.126129
[L_front_hand01_02]
17 71.020905 -0.000179 0.000030 0.000334 -0.002323 -106.379684 71.020905
18 71.020905 -0.000179 0.000030 0.000334 -0.002323 -106.379684 71.020905
[L_front_hand02_02]
17 71.020927 -0.000119 0.000060 0.000334 -0.002323 -106.379684 71.020927
18 71.020927 -0.000119 0.000060 0.000334 -0.002323 -106.379684 71.020927
[L_front_hand03_02]
17 71.020905 -0.000060 0.000060 0.000334 -0.002323 -106.379684 71.020905
18 71.020905 -0.000060 0.000060 0.000334 -0.002323 -106.379684 71.020905
[R_forearm]
17 322.776428 -0.000060 0.000030 0.205107 0.058690 -107.189323 322.776428
18 322.776428 -0.000060 0.000030 0.206412 0.061228 -107.493484 322.776428
[R_front_hand]
17 238.847015 -0.006795 2.210259 -2.635298 -10.645461 -26.312506 238.857239
18 238.847015 -0.006795 2.210259 -2.635298 -10.645461 -26.312506 238.857239
[R_weapon_bone]
17 155.664093 0.002503 -0.000030 0.003487 0.001180 -90.988930 155.664078
18 155.664093 0.002503 -0.000030 0.003487 0.001180 -90.988930 155.664078
[R_front_hand01_01]
17 87.624611 14.231146 22.918642 -154.633499 -59.950619 61.746044 91.683487
18 87.624611 14.231146 22.918642 -154.633499 -59.950619 61.746044 91.683487
[R_front_hand02_01]
17 89.356956 14.367283 -19.491137 154.602661 58.302849 63.744389 92.579636
18 89.356956 14.367283 -19.491137 154.602661 58.302849 63.744389 92.579636
[R_front_hand03_01]
17 87.286232 -22.307278 -0.143439 0.162155 -0.423168 -75.767921 90.091743
18 87.286232 -22.307278 -0.143439 0.162155 -0.423168 -75.767921 90.091743
[R_front_hand01_02]
17 71.020905 0.000060 0.000119 0.002323 -0.000334 106.381714 71.020905
18 71.020905 0.000060 0.000119 0.002323 -0.000334 106.381714 71.020905
[R_front_hand02_02]
17 71.020844 -0.000030 -0.000119 0.002323 -0.000334 106.381714 71.020836
18 71.020844 -0.000030 -0.000119 0.002323 -0.000334 106.381714 71.020836
[R_front_hand03_02]
17 71.020905 0.000000 0.000030 0.002323 -0.000334 106.381714 71.020905
18 71.020905 0.000000 0.000030 0.002323 -0.000334 106.381714 71.020905
[null_rope01_connect]
17 328.732483 0.000000 -0.000238 -135.742172 -58.784939 -157.846008 328.732483
18 328.732483 0.000000 -0.000238 -141.179642 -61.515770 -146.426758 328.732483
[Rope1_Seg01]
17 -0.000035 -0.000263 0.000000 39.531300 3.719812 -124.639366 0.000265
18 -0.000036 -0.000277 0.000000 51.849773 -4.136336 -118.700943 0.000279
[Rope1_Seg02]
17 139.999863 -0.000179 0.000000 25.448042 1.481399 13.349995 139.999863
18 139.999863 -0.000179 0.000000 28.569525 8.935745 7.482903 139.999863
[Rope1_Seg03]
17 139.999924 0.000060 -0.000060 31.271864 -5.917953 13.972900 139.999924
18 139.999924 0.000060 -0.000060 12.692609 7.192627 1.705125 139.999924
[Rope1_Seg04]
17 139.999924 -0.000060 -0.000119 -4.443309 18.077658 -22.368891 139.999924
18 139.999924 -0.000060 -0.000119 11.693492 11.782590 -0.656758 139.999924
[Rope1_Seg05]
17 139.999832 0.000119 -0.000060 -7.248461 18.495247 -28.695356 139.999832
18 139.999832 0.000119 -0.000060 3.124087 4.925556 -1.423895 139.999832
[Rope1_Seg06]
17 139.999954 0.000119 -0.000060 -0.430576 6.008256 -7.092679 139.999954
18 139.999954 0.000119 -0.000060 1.141841 2.056298 -0.690179 139.999954
[Rope1_Seg07]
17 139.999985 0.000060 0.000000 -0.109557 3.150569 -3.682971 139.999985
18 139.999985 0.000060 0.000000 0.659447 1.265465 -0.451046 139.999985
[Rope1_Seg09]
17 121.602913 0.000119 -0.000089 -89.793175 -1.359789 0.847147 121.602913
18 121.602913 0.000119 -0.000089 -89.793175 -1.359789 0.847147 121.602913
[L_mid_hand01]
17 103.859421 1.038730 8.195221 130.544373 -67.584534 -38.866943 104.187431
18 103.859421 1.038730 8.195221 130.544373 -67.584534 -38.866943 104.187431
[L_mid_hand02]
17 105.572853 -4.139662 -10.864139 -168.923172 43.409309 -73.498894 106.211075
18 105.572853 -4.139662 -10.864139 -168.923172 43.409309 -73.498886 106.211075
[L_mid_hand03]
17 104.641464 17.579376 -3.913581 -6.012627 17.808174 74.893669 106.179977
18 104.641464 17.579376 -3.913581 -6.012627 17.808174 74.893669 106.179977
[null_rope02_connect]
17 328.732849 0.000179 -0.000119 -118.944946 62.614948 -6.246584 328.732849
18 328.732849 0.000179 -0.000119 -126.695992 64.250008 -15.653895 328.732849
[Rope2_Seg01]
17 0.000000 -0.000227 -0.000012 -5.555127 -1.993172 -52.676327 0.000227
18 0.000000 -0.000253 -0.000008 -11.310426 -1.240560 -55.779099 0.000253
[Rope2_Seg02]
17 139.999741 -0.000060 -0.000119 -0.408716 -0.142113 -0.096749 139.999756
18 139.999741 -0.000060 -0.000119 -3.038533 -0.839652 -0.940855 139.999756
[Rope2_Seg03]
17 140.000107 0.000030 0.000000 2.405933 2.297111 0.000425 140.000107
18 140.000107 0.000030 0.000000 1.432151 1.212212 0.100902 140.000107
[Rope2_Seg04]
17 139.999802 0.000000 -0.000060 0.278422 0.397452 -0.056723 139.999802
18 139.999802 0.000000 -0.000060 -3.750441 -1.572661 -0.926719 139.999802
[Rope2_Seg05]
17 139.999985 -0.000060 0.000119 -9.958100 -7.106968 0.114281 139.999985
18 139.999985 -0.000060 0.000119 -9.811517 -3.908368 -1.992301 139.999985
[Rope2_Seg06]
17 139.999893 -0.000030 -0.000119 -14.649648 -5.364668 -0.845741 139.999893
18 139.999893 -0.000030 -0.000119 -6.083845 -1.818990 -1.357971 139.999893
[Rope2_Seg07]
17 139.999893 0.000060 -0.000060 -8.520308 -1.885349 -0.830063 139.999893
18 139.999893 0.000060 -0.000060 -3.183726 -0.786034 -0.748341 139.999893
[Rope2_Seg09]
17 121.338966 0.000089 -0.000060 33.793236 -1.359788 -0.847141 121.338966
18 121.338966 0.000089 -0.000060 33.793236 -1.359788 -0.847141 121.338966
[R_mid_hand01]
17 104.680779 11.144459 -10.335981 -16.212063 45.237247 70.462852 105.778534
18 104.680779 11.144459 -10.335981 -16.212063 45.237247 70.462852 105.778534
[R_mid_hand02]
17 104.070427 2.443552 8.231699 49.067368 -67.749771 39.286453 104.424065
18 104.070427 2.443552 8.231699 49.067368 -67.749771 39.286453 104.424065
[R_mid_hand03]
17 106.028137 -11.221827 -5.996406 -177.101105 15.551026 -76.585571 106.788818
18 106.028137 -11.221827 -5.996406 -177.101105 15.551026 -76.585571 106.788818
[spine02]
17 129.756927 0.001550 0.000119 0.271682 -4.052996 -11.667620 129.756927
18 129.756927 0.001550 0.000119 0.301363 -4.050436 -12.089167 129.756927
[spine03]
17 78.614174 0.081553 -4.899121 1.842403 3.859662 15.688785 78.766724
18 78.614182 0.081590 -4.899127 1.860734 3.850728 15.955730 78.766731
[pelvis]
17 169.435242 0.051022 0.000000 -0.053069 -0.181577 12.514477 169.435257
18 169.435242 0.051022 0.000000 -0.056374 -0.181049 13.049615 169.435257
[null_rope03_connect]
17 -1.257226 -2.466202 137.391083 22.089155 -89.049820 51.527534 137.418976
18 -1.257226 -2.466202 137.391083 25.147276 -88.980484 43.719200 137.418976
[null_rope04_connect]
17 -1.259640 -2.480268 -137.844437 22.089155 -89.049820 51.527534 137.872513
18 -1.259640 -2.480268 -137.844437 25.147276 -88.980484 43.719200 137.872513
[Rope3_Seg01]
17 0.000000 0.000000 0.000000 17.521212 8.538555 -75.054123 0.000000
18 0.000000 0.000000 0.000000 18.165991 20.216656 -77.056770 0.000000
[Rope3_Seg02]
17 139.999924 -0.000119 0.000060 0.112791 1.799832 2.664783 139.999924
18 139.999924 -0.000119 0.000060 -0.090019 -0.605580 1.436445 139.999924
[Rope3_Seg03]
17 139.999924 -0.000119 0.000119 0.220064 2.415894 2.613489 139.999924
18 139.999924 -0.000119 0.000119 -0.119553 -0.550690 1.550301 139.999924
[Rope3_Seg04]
17 139.999924 0.000119 0.000000 0.943284 5.572319 2.657346 139.999924
18 139.999924 0.000119 0.000000 0.032814 1.351513 1.802479 139.999924
[Rope3_Seg05]
17 139.999924 -0.000238 0.000060 -1.413857 -4.298897 2.366324 139.999924
18 139.999924 -0.000238 0.000060 -0.534513 -3.097001 1.713183 139.999924
[Rope3_Seg06]
17 139.999893 -0.000119 -0.000060 -2.145151 -10.800863 1.476474 139.999893
18 139.999893 -0.000119 -0.000060 -0.600782 -7.159506 0.995657 139.999893
[Rope3_Seg07]
17 139.999771 0.000060 -0.000119 -0.519573 -5.847404 0.993885 139.999771
18 139.999771 0.000060 -0.000119 0.043974 -4.505445 0.811657 139.999771
[Rope3_Seg08]
17 139.999985 -0.000060 0.000000 0.035901 -3.565012 0.648745 139.999985
18 139.999985 -0.000060 0.000000 0.318667 -2.844068 0.582472 139.999985
[Rope3_Seg09]
17 90.185997 -0.000179 -0.000060 89.793228 -1.359877 -0.847183 90.185997
18 90.185997 -0.000179 -0.000060 89.793228 -1.359877 -0.847183 90.185997
[R_rear_hand01]
17 103.366196 -6.073594 -10.757982 172.856537 -15.220671 -75.434441 104.101845
18 103.366196 -6.073594 -10.757982 172.856537 -15.220671 -75.434441 104.101845
[R_rear_hand02]
17 100.509819 12.039542 -7.992327 -12.874829 36.868488 72.167213 101.543350
18 100.509819 12.039542 -7.992327 -12.874829 36.868488 72.167213 101.543350
[R_rear_hand03]
17 101.539970 5.215704 5.435467 71.484581 -71.816628 21.513813 101.819031
18 101.539970 5.215704 5.435467 71.484581 -71.816628 21.513813 101.819031
[Rope4_Seg01]
17 -0.000141 -0.000006 -0.000068 -98.574913 -0.067013 -96.382561 0.000156
18 -0.000145 -0.000004 -0.000068 -98.987923 9.413681 -103.179474 0.000160
[Rope4_Seg02]
17 139.999985 0.000060 0.000119 1.123080 -11.530931 2.632563 139.999985
18 139.999985 0.000060 0.000119 0.034168 -10.359784 1.230154 139.999985
[Rope4_Seg03]
17 139.999924 0.000000 -0.000238 2.960227 -13.127372 3.595929 139.999924
18 139.999924 0.000000 -0.000238 1.308725 -13.586617 1.195639 139.999924
[Rope4_Seg04]
17 139.999985 0.000000 0.000119 3.974689 -10.168406 3.369725 139.999985
18 139.999985 0.000000 0.000119 3.311980 -14.771488 1.438251 139.999985
[Rope4_Seg05]
17 139.999802 -0.000060 -0.000119 -2.907094 4.904673 -3.044750 139.999802
18 139.999802 -0.000060 -0.000119 -1.270732 9.355196 0.885239 139.999802
[Rope4_Seg06]
17 139.999924 0.000000 0.000060 -2.942856 6.567861 -3.289548 139.999924
18 139.999924 0.000000 0.000060 -1.144705 14.119652 0.602483 139.999924
[Rope4_Seg07]
17 139.999802 0.000000 0.000000 -0.878760 2.608472 -1.294730 139.999802
18 139.999802 0.000000 0.000000 0.015267 5.830204 0.656118 139.999802
[Rope4_Seg08]
17 139.999924 0.000000 0.000119 -2.058703 1.728093 -0.825874 139.999924
18 139.999924 0.000000 0.000119 -1.444950 3.672530 0.410604 139.999924
[Rope4_Seg09]
17 90.185791 0.000060 0.000060 -135.617828 2.228885 0.850567 90.185791
18 90.185791 0.000060 0.000060 -135.617828 2.228885 0.850567 90.185791
[L_rear_hand01]
17 101.696655 -8.392275 -7.654577 -12.874829 -36.868488 107.832764 102.329041
18 101.696655 -8.392275 -7.654577 -12.874829 -36.868488 107.832764 102.329041
[L_rear_hand02]
17 102.726799 -1.568258 5.773216 71.484581 71.816628 158.486160 102.900848
18 102.726799 -1.568258 5.773216 71.484581 71.816628 158.486160 102.900848
[L_rear_hand03]
17 104.552910 9.721220 -10.420293 -177.714203 -24.565960 -106.089035 105.519653
18 104.552910 9.721220 -10.420293 -177.714203 -24.565960 -106.089035 105.519653
